<svg id="Capa_1" data-name="Capa 1" xmlns="http://www.w3.org/2000/svg" xmlns:xlink="http://www.w3.org/1999/xlink" viewBox="0 0 1366 768"><defs><style>.cls-1{fill:none;}.cls-2{fill:#0e0b0b;}.cls-3{opacity:0.47;}.cls-4{fill:#262424;}.cls-5{fill:url(#Motivo_nuevo_2);}</style><pattern id="Motivo_nuevo_2" data-name="Motivo nuevo 2" width="146.23" height="139" patternUnits="userSpaceOnUse" viewBox="0 0 146.23 139"><rect class="cls-1" width="146.23" height="139"/><rect class="cls-2" width="146.23" height="139"/><g class="cls-3"><path class="cls-4" d="M67.41,35.16C69.92,34,70.62,32,71.25,30.25h4.36a9.25,9.25,0,0,0,3.44,4.44h0A4.79,4.79,0,0,0,86.45,30l-.65-4.65c-.09-.67-.15-1.18-.18-1.66A8.28,8.28,0,0,0,77.34,16H69.7a8.3,8.3,0,0,0-8.27,7.61c-.07.88-.18,1.74-.28,2.39l-.58,4.2a4.78,4.78,0,0,0,.36,2.62,5,5,0,0,0,1.57,1.93,4.75,4.75,0,0,0,4.91.43Zm9.93-17.1a6.22,6.22,0,0,1,6.2,5.79c0,.53.1,1.09.2,1.8l.65,4.66A2.67,2.67,0,0,1,83.14,33a2.64,2.64,0,0,1-2.94,0A7.35,7.35,0,0,1,77.38,29a1.29,1.29,0,0,0-1.22-.87H70.7a1.31,1.31,0,0,0-1.22.84c-.06.18-.13.37-.2.55-.55,1.55-1,2.89-2.78,3.74a2.72,2.72,0,0,1-3.87-2.82l.59-4.2c.09-.68.21-1.58.29-2.51a6.25,6.25,0,0,1,6.19-5.7Z"/><path class="cls-4" d="M70.52,21.85h-.94v-1a1,1,0,1,0-2,0v1h-1a1,1,0,0,0-1,1h0a1,1,0,0,0,1,1h1v.94a1,1,0,0,0,2,0v-.94h.94a1,1,0,0,0,1-1h0A1,1,0,0,0,70.52,21.85Z"/><circle class="cls-4" cx="78.43" cy="20.94" r="0.91"/><circle class="cls-4" cx="76.6" cy="22.82" r="0.91"/><circle class="cls-4" cx="78.43" cy="24.7" r="0.91"/><circle class="cls-4" cx="80.26" cy="22.87" r="0.91"/><path class="cls-4" d="M112.88,35.16c2.51-1.21,3.22-3.18,3.84-4.91h4.36a9.25,9.25,0,0,0,3.44,4.44h0a4.79,4.79,0,0,0,7.4-4.66l-.65-4.65c-.09-.67-.14-1.18-.18-1.66A8.28,8.28,0,0,0,122.82,16h-7.65a8.3,8.3,0,0,0-8.27,7.61c-.07.88-.18,1.74-.27,2.39l-.59,4.2a4.78,4.78,0,0,0,.37,2.62A4.88,4.88,0,0,0,108,34.73a4.75,4.75,0,0,0,4.91.43Zm9.94-17.1A6.22,6.22,0,0,1,129,23.85c0,.53.1,1.09.2,1.8l.65,4.66A2.67,2.67,0,0,1,128.61,33a2.64,2.64,0,0,1-2.94,0A7.28,7.28,0,0,1,122.86,29a1.31,1.31,0,0,0-1.23-.87h-5.46A1.31,1.31,0,0,0,115,29l-.19.55c-.56,1.55-1,2.89-2.79,3.74a2.71,2.71,0,0,1-3.86-2.82l.58-4.2c.1-.68.21-1.58.29-2.51a6.25,6.25,0,0,1,6.19-5.7Z"/><path class="cls-4" d="M116,21.85h-.94v-1a1,1,0,0,0-2,0v1h-1a1,1,0,0,0-1,1h0a1,1,0,0,0,1,1h1v.94a1,1,0,0,0,2,0v-.94H116a1,1,0,0,0,1-1h0A1,1,0,0,0,116,21.85Z"/><circle class="cls-4" cx="123.9" cy="20.94" r="0.91"/><circle class="cls-4" cx="122.07" cy="22.82" r="0.91"/><circle class="cls-4" cx="123.9" cy="24.7" r="0.91"/><circle class="cls-4" cx="125.73" cy="22.87" r="0.91"/><path class="cls-4" d="M19.87,35.16C22.38,34,23.08,32,23.71,30.25h4.36a9.25,9.25,0,0,0,3.44,4.44h0A4.79,4.79,0,0,0,38.91,30l-.65-4.65c-.09-.67-.15-1.18-.18-1.66A8.28,8.28,0,0,0,29.8,16H22.16a8.3,8.3,0,0,0-8.27,7.61c-.07.88-.18,1.74-.27,2.39L13,30.18a4.78,4.78,0,0,0,.37,2.62A4.88,4.88,0,0,0,15,34.73a4.75,4.75,0,0,0,4.91.43Zm9.93-17.1A6.22,6.22,0,0,1,36,23.85c0,.53.1,1.09.2,1.8l.65,4.66A2.67,2.67,0,0,1,35.6,33a2.64,2.64,0,0,1-2.94,0A7.28,7.28,0,0,1,29.85,29a1.31,1.31,0,0,0-1.23-.87H23.16a1.31,1.31,0,0,0-1.22.84l-.19.55c-.56,1.55-1,2.89-2.79,3.74a2.72,2.72,0,0,1-3.87-2.82l.59-4.2c.09-.68.21-1.58.29-2.51a6.25,6.25,0,0,1,6.19-5.7Z"/><path class="cls-4" d="M23,21.85h-.94v-1a1,1,0,0,0-2,0v1h-1a1,1,0,0,0-1,1h0a1,1,0,0,0,1,1h1v.94a1,1,0,0,0,2,0v-.94H23a1,1,0,0,0,1-1h0A1,1,0,0,0,23,21.85Z"/><circle class="cls-4" cx="30.89" cy="20.94" r="0.91"/><circle class="cls-4" cx="29.06" cy="22.82" r="0.91"/><circle class="cls-4" cx="30.89" cy="24.7" r="0.91"/><circle class="cls-4" cx="32.72" cy="22.87" r="0.91"/><path class="cls-4" d="M83.38,72.74c-1.22-2.51-3.18-3.22-4.92-3.84h0V64.54a9.25,9.25,0,0,0,4.44-3.44h0a4.79,4.79,0,0,0-4.65-7.4l-4.66.65c-.67.09-1.18.15-1.66.18a8.28,8.28,0,0,0-7.73,8.27v7.65a8.29,8.29,0,0,0,7.62,8.27c.87.07,1.73.18,2.39.27l4.19.59A4.77,4.77,0,0,0,81,79.21a4.88,4.88,0,0,0,1.93-1.56,4.8,4.8,0,0,0,.93-2.81A4.93,4.93,0,0,0,83.38,72.74ZM66.27,62.8a6.22,6.22,0,0,1,5.79-6.19c.53,0,1.09-.1,1.8-.2l4.66-.65A2.67,2.67,0,0,1,81.2,57a2.64,2.64,0,0,1,0,2.94,7.29,7.29,0,0,1-3.91,2.81A1.3,1.3,0,0,0,76.37,64v5.46a1.31,1.31,0,0,0,.84,1.22l.55.19c1.55.56,2.89,1,3.74,2.79a2.71,2.71,0,0,1-2.82,3.86l-4.2-.58c-.68-.1-1.58-.21-2.51-.29a6.25,6.25,0,0,1-5.7-6.19Z"/><path class="cls-4" d="M70.07,69.62v.94h-1a1,1,0,1,0,0,2h1v1a1,1,0,0,0,1,1h0a1,1,0,0,0,1-1v-1H73a1,1,0,0,0,0-2h-.94v-.94a1,1,0,0,0-1-1h0A1,1,0,0,0,70.07,69.62Z"/><circle class="cls-4" cx="69.15" cy="61.72" r="0.91"/><circle class="cls-4" cx="71.03" cy="63.55" r="0.91"/><circle class="cls-4" cx="72.91" cy="61.72" r="0.91"/><circle class="cls-4" cx="71.08" cy="59.89" r="0.91"/><path class="cls-4" d="M128.85,72.74c-1.22-2.51-3.18-3.22-4.91-3.84h0V64.54a9.3,9.3,0,0,0,4.44-3.44h0a4.8,4.8,0,0,0-4.66-7.4l-4.66.65c-.67.09-1.18.15-1.66.18a8.3,8.3,0,0,0-7.73,8.27v7.65a8.29,8.29,0,0,0,7.62,8.27c.87.07,1.73.18,2.39.27l4.2.59a4.75,4.75,0,0,0,2.61-.37,4.81,4.81,0,0,0,1.93-1.56,4.73,4.73,0,0,0,.93-2.81A4.78,4.78,0,0,0,128.85,72.74ZM111.74,62.8a6.23,6.23,0,0,1,5.79-6.19c.53,0,1.09-.1,1.81-.2l4.66-.65A2.71,2.71,0,0,1,126.63,60a7.29,7.29,0,0,1-3.91,2.81,1.3,1.3,0,0,0-.88,1.23v5.46a1.31,1.31,0,0,0,.85,1.22l.54.19c1.56.56,2.9,1,3.74,2.79a2.7,2.7,0,0,1-2.82,3.86L120,76.93c-.69-.1-1.59-.21-2.51-.29a6.25,6.25,0,0,1-5.71-6.19Z"/><path class="cls-4" d="M115.54,69.62v.94h-1a1,1,0,0,0,0,2h1v1a1,1,0,0,0,1,1h0a1,1,0,0,0,1-1v-1h.94a1,1,0,0,0,0-2h-.94v-.94a1,1,0,0,0-1-1h0A1,1,0,0,0,115.54,69.62Z"/><circle class="cls-4" cx="114.62" cy="61.72" r="0.91"/><circle class="cls-4" cx="116.5" cy="63.55" r="0.91"/><circle class="cls-4" cx="118.38" cy="61.72" r="0.91"/><circle class="cls-4" cx="116.55" cy="59.89" r="0.91"/><path class="cls-4" d="M35.84,72.74c-1.22-2.51-3.18-3.22-4.91-3.84h0V64.54a9.22,9.22,0,0,0,4.43-3.44h0a4.79,4.79,0,0,0-4.65-7.4L26,54.35c-.67.09-1.18.15-1.66.18a8.3,8.3,0,0,0-7.73,8.27v7.65a8.29,8.29,0,0,0,7.62,8.27c.87.07,1.73.18,2.39.27l4.2.59a4.75,4.75,0,0,0,2.61-.37,4.83,4.83,0,0,0,2.86-4.37A4.93,4.93,0,0,0,35.84,72.74ZM18.73,62.8a6.23,6.23,0,0,1,5.79-6.19c.53,0,1.09-.1,1.81-.2L31,55.76A2.67,2.67,0,0,1,33.66,57a2.64,2.64,0,0,1,0,2.94,7.29,7.29,0,0,1-3.91,2.81A1.3,1.3,0,0,0,28.83,64v5.46a1.31,1.31,0,0,0,.85,1.22l.54.19c1.55.56,2.9,1,3.74,2.79a2.71,2.71,0,0,1-2.82,3.86l-4.2-.58c-.68-.1-1.58-.21-2.5-.29a6.25,6.25,0,0,1-5.71-6.19Z"/><path class="cls-4" d="M22.53,69.62v.94h-1a1,1,0,0,0,0,2h1v1a1,1,0,0,0,1,1h0a1,1,0,0,0,1-1v-1h.94a1,1,0,0,0,0-2h-.94v-.94a1,1,0,0,0-1-1h0A1,1,0,0,0,22.53,69.62Z"/><circle class="cls-4" cx="21.61" cy="61.72" r="0.91"/><circle class="cls-4" cx="23.49" cy="63.55" r="0.91"/><circle class="cls-4" cx="25.37" cy="61.72" r="0.91"/><circle class="cls-4" cx="23.54" cy="59.89" r="0.91"/><path class="cls-4" d="M63.65,117.18c1.21-2.51,3.18-3.22,4.91-3.84h0V109a9.31,9.31,0,0,1-4.44-3.44h0a4.79,4.79,0,0,1,4.66-7.4l4.65.65c.67.09,1.18.14,1.66.18a8.28,8.28,0,0,1,7.73,8.27v7.65a8.32,8.32,0,0,1-7.61,8.27c-.88.07-1.74.18-2.39.27l-4.2.59a4.78,4.78,0,0,1-2.62-.37,4.88,4.88,0,0,1-1.93-1.56,4.75,4.75,0,0,1-.43-4.91Zm17.1-9.94A6.23,6.23,0,0,0,75,101c-.53,0-1.09-.09-1.8-.19l-4.66-.65a2.66,2.66,0,0,0-2.68,1.25,2.63,2.63,0,0,0,0,2.93,7.3,7.3,0,0,0,3.92,2.82,1.31,1.31,0,0,1,.87,1.23v5.46a1.29,1.29,0,0,1-.84,1.21l-.55.2c-1.55.56-2.89,1-3.74,2.79A2.71,2.71,0,0,0,68.34,122l4.2-.58c.68-.1,1.58-.22,2.51-.29a6.25,6.25,0,0,0,5.7-6.19Z"/><path class="cls-4" d="M77,114.06V115h1a1,1,0,0,1,0,2H77v1a1,1,0,0,1-1,1h0a1,1,0,0,1-1-1v-1H74a1,1,0,0,1,0-2H75v-.94a1,1,0,0,1,1-1h0A1,1,0,0,1,77,114.06Z"/><circle class="cls-4" cx="77.87" cy="106.16" r="0.91"/><circle class="cls-4" cx="75.99" cy="107.99" r="0.91"/><circle class="cls-4" cx="74.11" cy="106.16" r="0.91"/><circle class="cls-4" cx="75.94" cy="104.33" r="0.91"/><path class="cls-4" d="M18.17,117.18c1.22-2.51,3.18-3.22,4.91-3.84h0V109a9.28,9.28,0,0,1-4.43-3.44h0a4.79,4.79,0,0,1,4.65-7.4l4.66.65c.67.09,1.18.14,1.66.18a8.3,8.3,0,0,1,7.73,8.27v7.65a8.21,8.21,0,0,1-2.21,5.63,8.3,8.3,0,0,1-5.41,2.64c-.87.07-1.73.18-2.39.27l-4.2.59a4.75,4.75,0,0,1-2.61-.37,4.83,4.83,0,0,1-2.86-4.37A4.93,4.93,0,0,1,18.17,117.18Zm17.11-9.94a6.23,6.23,0,0,0-5.79-6.2c-.53,0-1.09-.09-1.81-.19L23,100.2a2.66,2.66,0,0,0-2.68,1.25,2.63,2.63,0,0,0,0,2.93,7.31,7.31,0,0,0,3.91,2.82,1.3,1.3,0,0,1,.88,1.23v5.46a1.28,1.28,0,0,1-.85,1.21l-.54.2c-1.55.56-2.89,1-3.74,2.79A2.71,2.71,0,0,0,22.87,122l4.2-.58c.68-.1,1.58-.22,2.5-.29a6.25,6.25,0,0,0,5.71-6.19Z"/><path class="cls-4" d="M31.48,114.06V115h1a1,1,0,1,1,0,2h-1v1a1,1,0,0,1-1,1h0a1,1,0,0,1-1-1v-1h-.94a1,1,0,1,1,0-2h.94v-.94a1,1,0,0,1,1-1h0A1,1,0,0,1,31.48,114.06Z"/><circle class="cls-4" cx="32.4" cy="106.16" r="0.91"/><circle class="cls-4" cx="30.52" cy="107.99" r="0.91"/><circle class="cls-4" cx="28.64" cy="106.16" r="0.91"/><circle class="cls-4" cx="30.47" cy="104.33" r="0.91"/><path class="cls-4" d="M111.18,117.18c1.22-2.51,3.18-3.22,4.92-3.84h0V109a9.31,9.31,0,0,1-4.44-3.44h0a4.79,4.79,0,0,1,4.65-7.4l4.66.65c.67.09,1.18.14,1.66.18a8.28,8.28,0,0,1,7.73,8.27v7.65a8.31,8.31,0,0,1-7.62,8.27c-.87.07-1.73.18-2.39.27l-4.19.59a4.78,4.78,0,0,1-2.62-.37,4.88,4.88,0,0,1-1.93-1.56,4.8,4.8,0,0,1-.93-2.81A4.93,4.93,0,0,1,111.18,117.18Zm17.11-9.94a6.23,6.23,0,0,0-5.79-6.2c-.53,0-1.09-.09-1.8-.19L116,100.2a2.66,2.66,0,0,0-2.68,1.25,2.63,2.63,0,0,0,0,2.93,7.3,7.3,0,0,0,3.92,2.82,1.31,1.31,0,0,1,.87,1.23v5.46a1.29,1.29,0,0,1-.84,1.21l-.55.2c-1.55.56-2.89,1-3.74,2.79a2.71,2.71,0,0,0,2.82,3.86l4.2-.58c.68-.1,1.58-.22,2.51-.29a6.25,6.25,0,0,0,5.7-6.19Z"/><path class="cls-4" d="M124.49,114.06V115h1a1,1,0,0,1,0,2h-1v1a1,1,0,0,1-1,1h0a1,1,0,0,1-1-1v-1h-.94a1,1,0,0,1,0-2h.94v-.94a1,1,0,0,1,1-1h0A1,1,0,0,1,124.49,114.06Z"/><circle class="cls-4" cx="125.41" cy="106.16" r="0.91"/><circle class="cls-4" cx="123.53" cy="107.99" r="0.91"/><circle class="cls-4" cx="121.65" cy="106.16" r="0.91"/><circle class="cls-4" cx="123.48" cy="104.33" r="0.91"/></g></pattern></defs><rect class="cls-5" width="1366" height="768"/></svg>